# xmcd CD database file
#
# Track frame offsets:
#	150
#	18535
#	36907
#	55280
#
# Disc length: 981 seconds
#
# Revision: 0
# Processed by: cddbd v1.5PL3 Copyright (c) Steve Scherf et al.
# Submitted via: CDex 1.51
#
DISCID=2f03d304
DTITLE=JAURIM - HEY GUYZ
DYEAR=2003
DGENRE=Rock
TTITLE0=HEY GUYZ [Japanese Vr.]
TTITLE1=HEY GUYZ [Korean Vr.]
TTITLE2=HEY GUYZ [English Vr.]
TTITLE3=HEY GUYZ [Instrumental]
EXTD=YEAR: 2003
EXTT0=
EXTT1=
EXTT2=
EXTT3=
PLAYORDER=
